<?xml version="1.0" encoding="utf-8"?>
<!-- Generator: Adobe Illustrator 23.0.3, SVG Export Plug-In . SVG Version: 6.00 Build 0)  -->
<svg version="1.1" id="Layer_1" xmlns="http://www.w3.org/2000/svg" xmlns:xlink="http://www.w3.org/1999/xlink" x="0px" y="0px"
	 viewBox="0 0 217.49 332.82" style="enable-background:new 0 0 217.49 332.82;" xml:space="preserve">
<g>
	<path d="M119.62,0H94.09C41.33,0,0,43,0,97.89v137.04c0,54.89,41.33,97.89,94.09,97.89h25.53c53.97,0,97.88-43.91,97.88-97.89
		V97.89C217.49,43.91,173.59,0,119.62,0L119.62,0z M107.76,51.3h1.98c3.09,0,5.6,2.51,5.6,5.6v39.87c0,3.09-2.51,5.6-5.6,5.6h-1.98
		c-3.09,0-5.6-2.51-5.6-5.6V56.9C102.16,53.81,104.67,51.3,107.76,51.3L107.76,51.3z M204.69,234.93
		c0,46.92-38.16,85.09-85.07,85.09H94.09c-45.58,0-81.29-37.38-81.29-85.09V97.89c0-47.71,35.7-85.09,81.29-85.09h8.18v26.53
		c-7.47,2.34-12.91,9.33-12.91,17.57v39.86c0,8.23,5.44,15.22,12.91,17.56v32.93c0,3.54,2.87,6.4,6.4,6.4c3.54,0,6.4-2.87,6.4-6.4
		v-32.89c7.55-2.29,13.07-9.32,13.07-17.61V56.9c0-8.29-5.51-15.32-13.07-17.61V12.8h4.55c46.91,0,85.07,38.17,85.07,85.09V234.93z
		 M204.69,234.93"/>
</g>
</svg>
