<?xml version="1.0" encoding="utf-8"?>
<!-- Generator: Adobe Illustrator 23.0.3, SVG Export Plug-In . SVG Version: 6.00 Build 0)  -->
<svg version="1.1" id="Layer_1" xmlns="http://www.w3.org/2000/svg" xmlns:xlink="http://www.w3.org/1999/xlink" x="0px" y="0px"
	 viewBox="0 0 382.8 275" style="enable-background:new 0 0 382.8 275;" xml:space="preserve">
<style type="text/css">
	.st0{clip-path:url(#SVGID_2_);fill:#231F20;}
	.st1{fill:#231F20;}
</style>
<g>
	<g>
		<defs>
			<rect id="SVGID_1_" width="382.8" height="275"/>
		</defs>
		<clipPath id="SVGID_2_">
			<use xlink:href="#SVGID_1_"  style="overflow:visible;"/>
		</clipPath>
		<path class="st0" d="M344.63,274.51H38.48C17.1,274.51,0,257.4,0,236.02V38.48C0,17.1,17.1,0,38.48,0h305.29
			c21.38,0,38.49,17.1,38.49,38.48v197.54C383.11,257.4,365.15,274.51,344.63,274.51L344.63,274.51z M38.48,25.66
			c-6.84,0-12.82,5.98-12.82,12.82v197.54c0,6.84,5.98,12.83,12.82,12.83h305.29c6.84,0,12.83-5.99,12.83-12.83V38.48
			c0-6.84-5.99-12.82-12.83-12.82H38.48z M38.48,25.66"/>
	</g>
	<path class="st1" d="M191.55,184.71c-3.42,0-5.98-0.85-8.55-3.42L11.97,29.93c-5.13-4.27-5.99-12.83-0.86-17.96
		c4.28-5.13,12.83-5.99,17.96-0.86l162.48,143.67L354.03,11.12c5.13-4.28,13.68-4.28,17.96,0.86c4.28,5.13,4.28,13.68-0.86,17.96
		L200.1,181.29C197.54,183,194.12,184.71,191.55,184.71L191.55,184.71z M191.55,184.71"/>
	<path class="st1" d="M15.39,262.54c-3.42,0-6.84-1.71-9.41-4.28c-5.13-5.13-4.28-13.68,0.85-17.96l121.43-114.59
		c5.13-5.13,13.68-4.27,17.96,0.85c5.13,5.13,4.27,13.68-0.85,17.96L24.8,259.11C22.23,260.82,18.81,262.54,15.39,262.54
		L15.39,262.54z M15.39,262.54"/>
	<path class="st1" d="M366.86,262.54c-3.42,0-5.99-0.86-8.55-3.42L236.88,144.52c-5.13-5.13-5.13-12.83-0.86-17.96
		c5.13-5.13,12.83-5.13,17.96-0.85L375.41,240.3c5.13,5.13,5.13,12.83,0.86,17.96C373.7,260.82,370.29,262.54,366.86,262.54
		L366.86,262.54z M366.86,262.54"/>
</g>
</svg>
