<?xml version="1.0" encoding="utf-8"?>
<!-- Generator: Adobe Illustrator 23.0.3, SVG Export Plug-In . SVG Version: 6.00 Build 0)  -->
<svg version="1.1" id="Layer_1" xmlns="http://www.w3.org/2000/svg" xmlns:xlink="http://www.w3.org/1999/xlink" x="0px" y="0px"
	 viewBox="0 0 91.77 91.77" style="enable-background:new 0 0 91.77 91.77;" xml:space="preserve">
<g>
	<path d="M91.57,71.11c-0.26-0.78-1.91-1.93-4.95-3.45c-0.82-0.48-2-1.13-3.51-1.95c-1.52-0.83-2.9-1.59-4.14-2.29
		c-1.24-0.69-2.4-1.37-3.49-2.02c-0.17-0.13-0.71-0.51-1.63-1.14c-0.91-0.63-1.68-1.09-2.31-1.4c-0.63-0.3-1.25-0.46-1.86-0.46
		c-0.87,0-1.95,0.62-3.26,1.86c-1.3,1.24-2.5,2.59-3.58,4.04c-1.09,1.46-2.24,2.8-3.45,4.04c-1.22,1.24-2.22,1.86-3,1.86
		c-0.39,0-0.88-0.11-1.47-0.32c-0.58-0.22-1.03-0.4-1.34-0.55c-0.3-0.15-0.82-0.46-1.56-0.91c-0.74-0.46-1.15-0.71-1.24-0.75
		c-5.95-3.3-11.06-7.08-15.32-11.34C31.2,52.05,27.42,46.95,24.12,41c-0.04-0.09-0.29-0.5-0.75-1.24c-0.46-0.74-0.76-1.26-0.91-1.57
		c-0.15-0.3-0.34-0.75-0.55-1.34c-0.21-0.59-0.32-1.08-0.32-1.46c0-0.78,0.62-1.78,1.86-3c1.24-1.21,2.59-2.37,4.04-3.45
		c1.46-1.09,2.8-2.28,4.04-3.58c1.24-1.3,1.86-2.39,1.86-3.26c0-0.61-0.15-1.23-0.46-1.86c-0.3-0.63-0.77-1.4-1.4-2.32
		c-0.63-0.91-1.01-1.45-1.14-1.63c-0.65-1.09-1.32-2.25-2.02-3.48c-0.7-1.24-1.45-2.62-2.28-4.14c-0.82-1.52-1.48-2.69-1.95-3.52
		c-1.52-3.04-2.67-4.69-3.46-4.95C20.36,0.07,19.9,0,19.29,0c-1.17,0-2.7,0.22-4.59,0.65c-1.89,0.43-3.38,0.89-4.46,1.37
		C8.06,2.93,5.76,5.58,3.32,9.97C1.11,14.05,0,18.1,0,22.09c0,1.17,0.07,2.31,0.23,3.42c0.15,1.11,0.42,2.36,0.82,3.75
		c0.39,1.39,0.71,2.42,0.94,3.09c0.24,0.67,0.68,1.88,1.34,3.62c0.65,1.74,1.04,2.8,1.17,3.19c1.52,4.26,3.32,8.06,5.41,11.41
		c3.43,5.56,8.11,11.31,14.05,17.24c5.93,5.93,11.68,10.61,17.24,14.05c3.34,2.09,7.15,3.89,11.41,5.41
		c0.39,0.13,1.46,0.52,3.19,1.17c1.73,0.65,2.94,1.1,3.61,1.33c0.68,0.24,1.71,0.56,3.1,0.95c1.39,0.39,2.64,0.66,3.75,0.81
		c1.1,0.15,2.25,0.23,3.42,0.23c4,0,8.04-1.11,12.13-3.32c4.39-2.43,7.04-4.74,7.95-6.91c0.48-1.09,0.93-2.57,1.37-4.46
		c0.43-1.89,0.65-3.42,0.65-4.59C91.77,71.87,91.7,71.41,91.57,71.11L91.57,71.11z M91.57,71.11"/>
</g>
</svg>
