<svg style="display:none;">
	<symbol id="mouse-scroll" viewBox="0 0 217.49 332.82">		
		<path d="M119.62,0H94.09C41.33,0,0,43,0,97.89v137.04c0,54.89,41.33,97.89,94.09,97.89h25.53c53.97,0,97.88-43.91,97.88-97.89
		V97.89C217.49,43.91,173.59,0,119.62,0L119.62,0z M107.76,51.3h1.98c3.09,0,5.6,2.51,5.6,5.6v39.87c0,3.09-2.51,5.6-5.6,5.6h-1.98
		c-3.09,0-5.6-2.51-5.6-5.6V56.9C102.16,53.81,104.67,51.3,107.76,51.3L107.76,51.3z M204.69,234.93
		c0,46.92-38.16,85.09-85.07,85.09H94.09c-45.58,0-81.29-37.38-81.29-85.09V97.89c0-47.71,35.7-85.09,81.29-85.09h8.18v26.53
		c-7.47,2.34-12.91,9.33-12.91,17.57v39.86c0,8.23,5.44,15.22,12.91,17.56v32.93c0,3.54,2.87,6.4,6.4,6.4c3.54,0,6.4-2.87,6.4-6.4
		v-32.89c7.55-2.29,13.07-9.32,13.07-17.61V56.9c0-8.29-5.51-15.32-13.07-17.61V12.8h4.55c46.91,0,85.07,38.17,85.07,85.09V234.93z
		 M204.69,234.93"/>
	</symbol>
	<symbol id="si-phone" viewBox="0 0 91.77 91.77">		
		<path d="M91.57,71.11c-0.26-0.78-1.91-1.93-4.95-3.45c-0.82-0.48-2-1.13-3.51-1.95c-1.52-0.83-2.9-1.59-4.14-2.29
		c-1.24-0.69-2.4-1.37-3.49-2.02c-0.17-0.13-0.71-0.51-1.63-1.14c-0.91-0.63-1.68-1.09-2.31-1.4c-0.63-0.3-1.25-0.46-1.86-0.46
		c-0.87,0-1.95,0.62-3.26,1.86c-1.3,1.24-2.5,2.59-3.58,4.04c-1.09,1.46-2.24,2.8-3.45,4.04c-1.22,1.24-2.22,1.86-3,1.86
		c-0.39,0-0.88-0.11-1.47-0.32c-0.58-0.22-1.03-0.4-1.34-0.55c-0.3-0.15-0.82-0.46-1.56-0.91c-0.74-0.46-1.15-0.71-1.24-0.75
		c-5.95-3.3-11.06-7.08-15.32-11.34C31.2,52.05,27.42,46.95,24.12,41c-0.04-0.09-0.29-0.5-0.75-1.24c-0.46-0.74-0.76-1.26-0.91-1.57
		c-0.15-0.3-0.34-0.75-0.55-1.34c-0.21-0.59-0.32-1.08-0.32-1.46c0-0.78,0.62-1.78,1.86-3c1.24-1.21,2.59-2.37,4.04-3.45
		c1.46-1.09,2.8-2.28,4.04-3.58c1.24-1.3,1.86-2.39,1.86-3.26c0-0.61-0.15-1.23-0.46-1.86c-0.3-0.63-0.77-1.4-1.4-2.32
		c-0.63-0.91-1.01-1.45-1.14-1.63c-0.65-1.09-1.32-2.25-2.02-3.48c-0.7-1.24-1.45-2.62-2.28-4.14c-0.82-1.52-1.48-2.69-1.95-3.52
		c-1.52-3.04-2.67-4.69-3.46-4.95C20.36,0.07,19.9,0,19.29,0c-1.17,0-2.7,0.22-4.59,0.65c-1.89,0.43-3.38,0.89-4.46,1.37
		C8.06,2.93,5.76,5.58,3.32,9.97C1.11,14.05,0,18.1,0,22.09c0,1.17,0.07,2.31,0.23,3.42c0.15,1.11,0.42,2.36,0.82,3.75
		c0.39,1.39,0.71,2.42,0.94,3.09c0.24,0.67,0.68,1.88,1.34,3.62c0.65,1.74,1.04,2.8,1.17,3.19c1.52,4.26,3.32,8.06,5.41,11.41
		c3.43,5.56,8.11,11.31,14.05,17.24c5.93,5.93,11.68,10.61,17.24,14.05c3.34,2.09,7.15,3.89,11.41,5.41
		c0.39,0.13,1.46,0.52,3.19,1.17c1.73,0.65,2.94,1.1,3.61,1.33c0.68,0.24,1.71,0.56,3.1,0.95c1.39,0.39,2.64,0.66,3.75,0.81
		c1.1,0.15,2.25,0.23,3.42,0.23c4,0,8.04-1.11,12.13-3.32c4.39-2.43,7.04-4.74,7.95-6.91c0.48-1.09,0.93-2.57,1.37-4.46
		c0.43-1.89,0.65-3.42,0.65-4.59C91.77,71.87,91.7,71.41,91.57,71.11L91.57,71.11z M91.57,71.11"/>
	</symbol>
	<symbol id="si-mail" viewBox="0 0 382.8 275">		
		<g>
			<defs>
				<rect id="SVGID_1_" width="382.8" height="275"/>
			</defs>
			<clipPath id="SVGID_2_">
				<use xlink:href="#SVGID_1_"  style="overflow:visible;"/>
			</clipPath>
			<path class="st0" d="M344.63,274.51H38.48C17.1,274.51,0,257.4,0,236.02V38.48C0,17.1,17.1,0,38.48,0h305.29
				c21.38,0,38.49,17.1,38.49,38.48v197.54C383.11,257.4,365.15,274.51,344.63,274.51L344.63,274.51z M38.48,25.66
				c-6.84,0-12.82,5.98-12.82,12.82v197.54c0,6.84,5.98,12.83,12.82,12.83h305.29c6.84,0,12.83-5.99,12.83-12.83V38.48
				c0-6.84-5.99-12.82-12.83-12.82H38.48z M38.48,25.66"/>
		</g>
		<path class="st1" d="M191.55,184.71c-3.42,0-5.98-0.85-8.55-3.42L11.97,29.93c-5.13-4.27-5.99-12.83-0.86-17.96
			c4.28-5.13,12.83-5.99,17.96-0.86l162.48,143.67L354.03,11.12c5.13-4.28,13.68-4.28,17.96,0.86c4.28,5.13,4.28,13.68-0.86,17.96
			L200.1,181.29C197.54,183,194.12,184.71,191.55,184.71L191.55,184.71z M191.55,184.71"/>
		<path class="st1" d="M15.39,262.54c-3.42,0-6.84-1.71-9.41-4.28c-5.13-5.13-4.28-13.68,0.85-17.96l121.43-114.59
			c5.13-5.13,13.68-4.27,17.96,0.85c5.13,5.13,4.27,13.68-0.85,17.96L24.8,259.11C22.23,260.82,18.81,262.54,15.39,262.54
			L15.39,262.54z M15.39,262.54"/>
		<path class="st1" d="M366.86,262.54c-3.42,0-5.99-0.86-8.55-3.42L236.88,144.52c-5.13-5.13-5.13-12.83-0.86-17.96
			c5.13-5.13,12.83-5.13,17.96-0.85L375.41,240.3c5.13,5.13,5.13,12.83,0.86,17.96C373.7,260.82,370.29,262.54,366.86,262.54
			L366.86,262.54z M366.86,262.54"/>
	</symbol>
	<symbol id="si-instagram" viewBox="0 0 169.063 169.063">		
		<path d="M122.406,0H46.654C20.929,0,0,20.93,0,46.655v75.752c0,25.726,20.929,46.655,46.654,46.655h75.752
		c25.727,0,46.656-20.93,46.656-46.655V46.655C169.063,20.93,148.133,0,122.406,0z M154.063,122.407
		c0,17.455-14.201,31.655-31.656,31.655H46.654C29.2,154.063,15,139.862,15,122.407V46.655C15,29.201,29.2,15,46.654,15h75.752
		c17.455,0,31.656,14.201,31.656,31.655V122.407z"/>
		<path d="M84.531,40.97c-24.021,0-43.563,19.542-43.563,43.563c0,24.02,19.542,43.561,43.563,43.561s43.563-19.541,43.563-43.561
			C128.094,60.512,108.552,40.97,84.531,40.97z M84.531,113.093c-15.749,0-28.563-12.812-28.563-28.561
			c0-15.75,12.813-28.563,28.563-28.563s28.563,12.813,28.563,28.563C113.094,100.281,100.28,113.093,84.531,113.093z"/>
		<path d="M129.921,28.251c-2.89,0-5.729,1.17-7.77,3.22c-2.051,2.04-3.23,4.88-3.23,7.78c0,2.891,1.18,5.73,3.23,7.78
			c2.04,2.04,4.88,3.22,7.77,3.22c2.9,0,5.73-1.18,7.78-3.22c2.05-2.05,3.22-4.89,3.22-7.78c0-2.9-1.17-5.74-3.22-7.78
			C135.661,29.421,132.821,28.251,129.921,28.251z"/>
	</symbol>
	<symbol id="si-facebook" viewBox="0 0 430.113 430.114">		
		<path id="Facebook" d="M158.081,83.3c0,10.839,0,59.218,0,59.218h-43.385v72.412h43.385v215.183h89.122V214.936h59.805
		c0,0,5.601-34.721,8.316-72.685c-7.784,0-67.784,0-67.784,0s0-42.127,0-49.511c0-7.4,9.717-17.354,19.321-17.354
		c9.586,0,29.818,0,48.557,0c0-9.859,0-43.924,0-75.385c-25.016,0-53.476,0-66.021,0C155.878-0.004,158.081,72.48,158.081,83.3z"/>
	</symbol>
	<symbol id="si-facebook" viewBox="0 0 430.113 430.114">		
		<path style="fill:none;stroke-width:6;" d="M70.47,31.62l-16.42,29L20.55,61L3.47,32.38l16.42-29l33.5-0.38L70.47,31.62z"/>
	</symbol>
	<symbol id="hexagon-narrow" viewBox="0 0 430.113 430.114">		
		<path style="fill:none;stroke-width:6;" d="M70.47,31.62l-16.42,29L20.55,61L3.47,32.38l16.42-29l33.5-0.38L70.47,31.62z"/>
	</symbol>
	<symbol id="hexagon-wide" viewBox="0 0 430.113 430.114">		
		<path style="fill:none;stroke-width:6;" d="M45,20.27l-10.05,17.5L14.45,38L4,20.73l10.05-17.5L34.55,3L45,20.27z"/>
	</symbol>
	
</svg>
